<svg xmlns="http://www.w3.org/2000/svg" xmlns:xlink="http://www.w3.org/1999/xlink" viewBox="0 0 52 52">
  <defs>
    <style>
      .cls-1, .cls-2 {
        fill: none;
      }

      .cls-1 {
        clip-rule: evenodd;
      }

      .cls-3 {
        clip-path: url(#clip-path);
      }

      .cls-4 {
        clip-path: url(#clip-path-2);
      }

      .cls-5 {
        clip-path: url(#clip-path-3);
      }

      .cls-6 {
        fill: #fff;
      }
    </style>
    <clipPath id="clip-path">
      <path id="Path_39215" data-name="Path 39215" class="cls-1" d="M345-845h52v-52H345Z"/>
    </clipPath>
    <clipPath id="clip-path-2">
      <path id="Path_39214" data-name="Path 39214" class="cls-2" d="M21,0H789V-4561H21Z"/>
    </clipPath>
    <clipPath id="clip-path-3">
      <path id="Path_39218" data-name="Path 39218" class="cls-1" d="M382.125-882.125a2.068,2.068,0,0,0-1.518-.626,2.064,2.064,0,0,0-1.518.626,2.063,2.063,0,0,0-.626,1.518,2.061,2.061,0,0,0,.626,1.518,2.059,2.059,0,0,0,1.518.626,2.063,2.063,0,0,0,1.518-.626,2.071,2.071,0,0,0,.626-1.518,2.073,2.073,0,0,0-.626-1.518m-6.875,15.374A5.785,5.785,0,0,0,377-871a5.788,5.788,0,0,0-1.75-4.25A5.788,5.788,0,0,0,371-877a5.782,5.782,0,0,0-4.249,1.75A5.783,5.783,0,0,0,365-871a5.78,5.78,0,0,0,1.75,4.249A5.777,5.777,0,0,0,371-865a5.783,5.783,0,0,0,4.25-1.75m-4.25-13.5a8.938,8.938,0,0,1,3.608.731,9.432,9.432,0,0,1,2.928,1.983,9.433,9.433,0,0,1,1.983,2.928,8.937,8.937,0,0,1,.731,3.607,8.931,8.931,0,0,1-.731,3.606,9.417,9.417,0,0,1-1.983,2.928,9.387,9.387,0,0,1-2.928,1.983,8.916,8.916,0,0,1-3.608.733,8.91,8.91,0,0,1-3.606-.733,9.358,9.358,0,0,1-2.928-1.983,9.373,9.373,0,0,1-1.983-2.928A8.91,8.91,0,0,1,361.75-871a8.916,8.916,0,0,1,.733-3.607,9.389,9.389,0,0,1,1.983-2.928,9.4,9.4,0,0,1,2.928-1.983,8.931,8.931,0,0,1,3.606-.731m-4.732-5.483q-1.125.02-2.553.09a12.605,12.605,0,0,0-2.088.249,9.823,9.823,0,0,0-1.233.357,5.875,5.875,0,0,0-1.124.572,6.257,6.257,0,0,0-.947.786,6.235,6.235,0,0,0-.785.946,5.8,5.8,0,0,0-.572,1.125,11.275,11.275,0,0,0-.375,1.251,10.144,10.144,0,0,0-.233,2.107q-.073,1.428-.089,2.535T356.25-871q0,3.607.018,4.732t.089,2.553a9.84,9.84,0,0,0,.233,2.088,11.5,11.5,0,0,0,.375,1.233,5.8,5.8,0,0,0,.572,1.125,6.249,6.249,0,0,0,.785.947,4.8,4.8,0,0,0,.947.8,6.641,6.641,0,0,0,1.124.554,11.161,11.161,0,0,0,1.25.375,10.065,10.065,0,0,0,2.071.232q1.428.07,2.553.089t4.732.018q3.607,0,4.732-.018t2.555-.089a9.96,9.96,0,0,0,2.088-.232,11.6,11.6,0,0,0,1.233-.375,6.641,6.641,0,0,0,1.124-.554,4.8,4.8,0,0,0,.946-.8,6.256,6.256,0,0,0,.786-.947,5.871,5.871,0,0,0,.572-1.125,12.125,12.125,0,0,0,.375-1.233,9.946,9.946,0,0,0,.231-2.088q.07-1.428.09-2.553t.017-4.732q0-3.607-.017-4.732t-.09-2.518a10.255,10.255,0,0,0-.231-2.107,11.865,11.865,0,0,0-.375-1.251,5.871,5.871,0,0,0-.572-1.125,6.242,6.242,0,0,0-.786-.946,6.244,6.244,0,0,0-.946-.786,5.875,5.875,0,0,0-1.124-.572,9.774,9.774,0,0,0-1.251-.357,12.889,12.889,0,0,0-2.07-.249q-1.43-.07-2.555-.09T371-885.749q-3.607,0-4.732.017M371-889q3.677,0,4.84.018t2.589.089a16.581,16.581,0,0,1,2.465.286,12.761,12.761,0,0,1,1.893.535,10.256,10.256,0,0,1,1.678.858,9.112,9.112,0,0,1,1.536,1.25,8.67,8.67,0,0,1,1.232,1.518,10.462,10.462,0,0,1,.84,1.66,12.756,12.756,0,0,1,.535,1.893,16.547,16.547,0,0,1,.286,2.465q.07,1.465.089,2.607T389-871q0,3.679-.018,4.821t-.089,2.607a16.526,16.526,0,0,1-.286,2.465,12.668,12.668,0,0,1-.535,1.893,10.351,10.351,0,0,1-.84,1.66A8.674,8.674,0,0,1,386-856.035a9.176,9.176,0,0,1-1.536,1.25,10.251,10.251,0,0,1-1.678.857,12.761,12.761,0,0,1-1.893.535,16.581,16.581,0,0,1-2.465.286q-1.43.07-2.589.089T371-853q-3.679,0-4.821-.018t-2.607-.089a16.518,16.518,0,0,1-2.465-.286,12.671,12.671,0,0,1-1.893-.535,9.528,9.528,0,0,1-1.66-.857,9.469,9.469,0,0,1-1.519-1.25,9.468,9.468,0,0,1-1.25-1.519,8.025,8.025,0,0,1-.822-1.66,10.354,10.354,0,0,1-.571-1.893,16.358,16.358,0,0,1-.286-2.465q-.072-1.463-.089-2.607T353-871q0-3.679.018-4.822t.089-2.607a16.378,16.378,0,0,1,.286-2.465,10.416,10.416,0,0,1,.571-1.893,8.091,8.091,0,0,1,.822-1.66,9.464,9.464,0,0,1,1.25-1.518,9.4,9.4,0,0,1,1.519-1.25,7.958,7.958,0,0,1,1.66-.821,10.252,10.252,0,0,1,1.893-.572,16.518,16.518,0,0,1,2.465-.286q1.463-.07,2.607-.089T371-889"/>
    </clipPath>
  </defs>
  <g id="Group_42613" data-name="Group 42613" transform="translate(-898 -4897)">
    <g id="Group_42063" data-name="Group 42063" class="cls-3" transform="translate(553 5794)">
      <g id="Group_42062" data-name="Group 42062" class="cls-4">
        <path id="Path_39213" data-name="Path 39213" d="M340-840h62v-62H340Z"/>
      </g>
    </g>
    <g id="Group_42065" data-name="Group 42065" class="cls-5" transform="translate(553 5794)">
      <g id="Group_42064" data-name="Group 42064" class="cls-4">
        <path id="Path_39216" data-name="Path 39216" class="cls-6" d="M348-848h46v-46H348Z"/>
      </g>
    </g>
  </g>
</svg>
